<svg width="41" height="41" viewBox="0 0 41 41" fill="none" xmlns="http://www.w3.org/2000/svg">
<rect opacity="0.2" width="40.6666" height="40.6666" rx="20.3333" fill="#B461D9"/>
<path d="M29.6248 28.3571L26.1735 12.1371C26.1176 11.8951 25.97 11.6843 25.7618 11.5489C25.5536 11.4135 25.3011 11.3641 25.0572 11.411L21.4652 12.1915C21.3781 12.0739 21.2649 11.9783 21.1344 11.9123C21.0039 11.8462 20.8598 11.8115 20.7135 11.8108H12.3908C12.1397 11.8159 11.9005 11.9192 11.7247 12.0986C11.5488 12.278 11.4504 12.5192 11.4504 12.7704V29.3199C11.4504 29.5693 11.5495 29.8085 11.7259 29.9848C11.9022 30.1612 12.1414 30.2603 12.3908 30.2603H20.7071C20.9565 30.2603 21.1957 30.1612 21.3721 29.9848C21.5485 29.8085 21.6475 29.5693 21.6475 29.3199V17.7154L24.1584 29.5182C24.1851 29.6382 24.2354 29.7517 24.3062 29.8521C24.377 29.9526 24.467 30.0381 24.571 30.1035C24.724 30.201 24.9014 30.2531 25.0828 30.2539C25.15 30.2539 28.8987 29.4638 28.8987 29.4638C29.1442 29.4155 29.3612 29.2732 29.5032 29.0672C29.6344 28.8553 29.678 28.6006 29.6248 28.3571ZM18.1611 14.2833H19.5684C19.6957 14.2833 19.8177 14.3339 19.9077 14.4239C19.9977 14.5138 20.0482 14.6359 20.0482 14.7631C20.0482 14.8904 19.9977 15.0124 19.9077 15.1024C19.8177 15.1924 19.6957 15.2429 19.5684 15.2429H18.1611C18.0338 15.2429 17.9118 15.1924 17.8218 15.1024C17.7318 15.0124 17.6813 14.8904 17.6813 14.7631C17.6813 14.6359 17.7318 14.5138 17.8218 14.4239C17.9118 14.3339 18.0338 14.2833 18.1611 14.2833ZM18.1611 16.0586H19.5684C19.6957 16.0586 19.8177 16.1091 19.9077 16.1991C19.9977 16.2891 20.0482 16.4111 20.0482 16.5383C20.0482 16.6656 19.9977 16.7876 19.9077 16.8776C19.8177 16.9676 19.6957 17.0181 19.5684 17.0181H18.1611C18.0338 17.0181 17.9118 16.9676 17.8218 16.8776C17.7318 16.7876 17.6813 16.6656 17.6813 16.5383C17.6813 16.4111 17.7318 16.2891 17.8218 16.1991C17.9118 16.1091 18.0338 16.0586 18.1611 16.0586ZM18.1611 17.8306H19.5684C19.6957 17.8306 19.8177 17.8811 19.9077 17.9711C19.9977 18.0611 20.0482 18.1831 20.0482 18.3104C20.0482 18.4376 19.9977 18.5596 19.9077 18.6496C19.8177 18.7396 19.6957 18.7901 19.5684 18.7901H18.1611C18.0338 18.7901 17.9118 18.7396 17.8218 18.6496C17.7318 18.5596 17.6813 18.4376 17.6813 18.3104C17.6813 18.1831 17.7318 18.0611 17.8218 17.9711C17.9118 17.8811 18.0338 17.8306 18.1611 17.8306ZM18.1611 19.6058H19.5684C19.6957 19.6058 19.8177 19.6563 19.9077 19.7463C19.9977 19.8363 20.0482 19.9583 20.0482 20.0856C20.0482 20.2128 19.9977 20.3349 19.9077 20.4248C19.8177 20.5148 19.6957 20.5654 19.5684 20.5654H18.1611C18.0338 20.5654 17.9118 20.5148 17.8218 20.4248C17.7318 20.3349 17.6813 20.2128 17.6813 20.0856C17.6813 19.9583 17.7318 19.8363 17.8218 19.7463C17.9118 19.6563 18.0338 19.6058 18.1611 19.6058ZM18.1611 21.3778H19.5684C19.6957 21.3778 19.8177 21.4284 19.9077 21.5183C19.9977 21.6083 20.0482 21.7303 20.0482 21.8576C20.0482 21.9848 19.9977 22.1069 19.9077 22.1969C19.8177 22.2868 19.6957 22.3374 19.5684 22.3374H18.1611C18.0338 22.3374 17.9118 22.2868 17.8218 22.1969C17.7318 22.1069 17.6813 21.9848 17.6813 21.8576C17.6813 21.7303 17.7318 21.6083 17.8218 21.5183C17.9118 21.4284 18.0338 21.3778 18.1611 21.3778ZM13.5391 14.2961H14.9433C15.0705 14.2961 15.1926 14.3467 15.2826 14.4367C15.3725 14.5266 15.4231 14.6487 15.4231 14.7759C15.4231 14.9032 15.3725 15.0252 15.2826 15.1152C15.1926 15.2052 15.0705 15.2557 14.9433 15.2557H13.5391C13.4119 15.2557 13.2898 15.2052 13.1999 15.1152C13.1099 15.0252 13.0593 14.9032 13.0593 14.7759C13.0593 14.6487 13.1099 14.5266 13.1999 14.4367C13.2898 14.3467 13.4119 14.2961 13.5391 14.2961ZM13.5391 16.0714H14.9433C15.0705 16.0714 15.1926 16.1219 15.2826 16.2119C15.3725 16.3019 15.4231 16.4239 15.4231 16.5511C15.4231 16.6784 15.3725 16.8004 15.2826 16.8904C15.1926 16.9804 15.0705 17.0309 14.9433 17.0309H13.5391C13.4119 17.0309 13.2898 16.9804 13.1999 16.8904C13.1099 16.8004 13.0593 16.6784 13.0593 16.5511C13.0593 16.4239 13.1099 16.3019 13.1999 16.2119C13.2898 16.1219 13.4119 16.0714 13.5391 16.0714ZM13.5391 17.8434H14.9433C15.0063 17.8434 15.0687 17.8558 15.1269 17.8799C15.1851 17.904 15.238 17.9393 15.2826 17.9839C15.3271 18.0284 15.3624 18.0813 15.3866 18.1395C15.4107 18.1978 15.4231 18.2601 15.4231 18.3232C15.4231 18.3862 15.4107 18.4485 15.3866 18.5068C15.3624 18.565 15.3271 18.6179 15.2826 18.6624C15.238 18.707 15.1851 18.7423 15.1269 18.7664C15.0687 18.7905 15.0063 18.8029 14.9433 18.8029H13.5391C13.4119 18.8029 13.2898 18.7524 13.1999 18.6624C13.1099 18.5724 13.0593 18.4504 13.0593 18.3232C13.0593 18.1959 13.1099 18.0739 13.1999 17.9839C13.2898 17.8939 13.4119 17.8434 13.5391 17.8434ZM13.5391 19.6186H14.9433C15.0705 19.6186 15.1926 19.6691 15.2826 19.7591C15.3725 19.8491 15.4231 19.9711 15.4231 20.0984C15.4231 20.2256 15.3725 20.3477 15.2826 20.4376C15.1926 20.5276 15.0705 20.5782 14.9433 20.5782H13.5391C13.4119 20.5782 13.2898 20.5276 13.1999 20.4376C13.1099 20.3477 13.0593 20.2256 13.0593 20.0984C13.0593 19.9711 13.1099 19.8491 13.1999 19.7591C13.2898 19.6691 13.4119 19.6186 13.5391 19.6186ZM13.5391 21.3906H14.9433C15.0705 21.3906 15.1926 21.4411 15.2826 21.5311C15.3725 21.6211 15.4231 21.7431 15.4231 21.8704C15.4231 21.9976 15.3725 22.1197 15.2826 22.2096C15.1926 22.2996 15.0705 22.3502 14.9433 22.3502H13.5391C13.4119 22.3502 13.2898 22.2996 13.1999 22.2096C13.1099 22.1197 13.0593 21.9976 13.0593 21.8704C13.0593 21.7431 13.1099 21.6211 13.1999 21.5311C13.2898 21.4411 13.4119 21.3906 13.5391 21.3906ZM16.0692 29.3007L12.4068 29.3199V27.7622H16.0692V29.3007ZM16.0692 26.8026H12.41V24.8579H16.0692V26.8026ZM20.6911 29.3007L17.0288 29.3199V27.7622H20.6943L20.6911 29.3007ZM20.6911 26.8026H17.0288V24.8579H20.6943L20.6911 26.8026ZM26.503 21.4066C26.5161 21.4683 26.5169 21.5321 26.5053 21.5941C26.4938 21.6562 26.4701 21.7154 26.4356 21.7683C26.4012 21.8212 26.3566 21.8667 26.3045 21.9024C26.2524 21.938 26.1937 21.963 26.1319 21.9759C26.1319 21.9759 24.6894 22.2798 24.6574 22.2798C24.5301 22.293 24.4029 22.255 24.3036 22.1743C24.2043 22.0937 24.1412 21.9768 24.128 21.8496C24.1149 21.7223 24.1528 21.5951 24.2335 21.4958C24.3142 21.3965 24.431 21.3334 24.5582 21.3202L25.9336 21.026C25.996 21.0134 26.0603 21.0133 26.1227 21.0256C26.1851 21.038 26.2445 21.0625 26.2974 21.0979C26.3503 21.1333 26.3957 21.1788 26.431 21.2317C26.4663 21.2847 26.4907 21.3441 26.503 21.4066ZM22.7127 14.9582C22.699 14.8967 22.6978 14.833 22.709 14.771C22.7201 14.7089 22.7435 14.6497 22.7777 14.5968C22.8119 14.5438 22.8563 14.4982 22.9083 14.4625C22.9602 14.4268 23.0188 14.4018 23.0805 14.3889L24.4559 14.0978C24.5186 14.0814 24.584 14.0778 24.6481 14.0873C24.7122 14.0968 24.7737 14.1192 24.829 14.1531C24.8842 14.1871 24.932 14.2319 24.9694 14.2848C25.0068 14.3377 25.0332 14.3976 25.0468 14.461C25.0604 14.5244 25.0611 14.5899 25.0487 14.6535C25.0363 14.7171 25.0112 14.7776 24.9748 14.8312C24.9384 14.8849 24.8915 14.9306 24.8369 14.9656C24.7824 15.0006 24.7213 15.0242 24.6574 15.035C24.6574 15.035 23.2148 15.3389 23.1796 15.3389C23.0699 15.3389 22.9635 15.3011 22.8784 15.2317C22.7933 15.1624 22.7348 15.0658 22.7127 14.9582ZM23.0805 16.6919C23.0549 16.5672 23.0795 16.4375 23.1489 16.3309C23.2184 16.2243 23.3272 16.1494 23.4515 16.1225L24.8269 15.8315C24.9515 15.8067 25.0808 15.8316 25.1872 15.901C25.2936 15.9703 25.3686 16.0785 25.3963 16.2025C25.4094 16.264 25.4101 16.3276 25.3985 16.3894C25.3869 16.4513 25.3632 16.5102 25.3287 16.5629C25.2942 16.6155 25.2496 16.6608 25.1976 16.6961C25.1455 16.7314 25.0869 16.7561 25.0252 16.7686C25.0252 16.7686 23.5827 17.0885 23.5507 17.0885C23.4383 17.088 23.3296 17.0479 23.2437 16.9755C23.1577 16.903 23.1 16.8026 23.0805 16.6919ZM23.4483 18.4287C23.4352 18.367 23.4344 18.3032 23.446 18.2412C23.4575 18.1791 23.4812 18.1199 23.5157 18.067C23.5501 18.0141 23.5947 17.9686 23.6468 17.9329C23.6989 17.8973 23.7576 17.8723 23.8194 17.8594L25.1948 17.5651C25.2565 17.5521 25.3202 17.5513 25.3822 17.5629C25.4443 17.5745 25.5034 17.5982 25.5563 17.6327C25.6091 17.6671 25.6547 17.7117 25.6904 17.7637C25.726 17.8158 25.7511 17.8744 25.7641 17.9361C25.7771 17.9979 25.7779 18.0616 25.7663 18.1236C25.7547 18.1856 25.731 18.2448 25.6965 18.2976C25.662 18.3505 25.6175 18.3961 25.5655 18.4317C25.5134 18.4674 25.4548 18.4925 25.3931 18.5055C25.3931 18.5055 23.9505 18.8253 23.9185 18.8253C23.8063 18.8242 23.6979 18.7839 23.6121 18.7116C23.5263 18.6392 23.4684 18.5392 23.4483 18.4287ZM23.8194 20.1623C23.7928 20.0381 23.8166 19.9083 23.8855 19.8016C23.9545 19.6949 24.063 19.6198 24.1872 19.593L25.5626 19.3019C25.6253 19.2855 25.6907 19.2819 25.7548 19.2914C25.8189 19.3009 25.8804 19.3233 25.9357 19.3572C25.9909 19.3912 26.0387 19.436 26.0761 19.4889C26.1136 19.5418 26.1399 19.6017 26.1535 19.6651C26.1671 19.7285 26.1678 19.794 26.1554 19.8576C26.143 19.9212 26.1179 19.9817 26.0815 20.0353C26.0451 20.089 25.9982 20.1347 25.9437 20.1697C25.8891 20.2047 25.828 20.2283 25.7641 20.2391C25.7641 20.2391 24.3215 20.543 24.2864 20.543C24.1766 20.543 24.0702 20.5052 23.9851 20.4358C23.9 20.3665 23.8415 20.2699 23.8194 20.1623ZM24.1744 24.9602L27.7568 24.199L28.1598 26.0989L24.5774 26.8538L24.1744 24.9602ZM25.102 29.3263L24.7821 27.8006L28.3614 27.0329L28.6812 28.5394L25.102 29.3263Z" fill="#B461D9"/>
</svg>
