<svg width="41" height="41" viewBox="0 0 41 41" fill="none" xmlns="http://www.w3.org/2000/svg">
<rect opacity="0.2" width="40.6666" height="40.6666" rx="20.3333" fill="#5BAC1B"/>
<path d="M15.1015 29.4065H25.5114C25.8532 29.4065 26.1916 29.3392 26.5073 29.2084C26.8231 29.0777 27.11 28.886 27.3516 28.6443C27.5933 28.4026 27.785 28.1157 27.9158 27.8C28.0466 27.4842 28.1139 27.1458 28.1139 26.8041V24.9407L30.0397 23.0149C30.2479 22.8067 30.2479 22.4839 30.0397 22.2757L28.1139 20.3499V16.4046C28.1139 16.3317 28.1035 16.2692 28.0723 16.2068C28.041 16.1443 28.0098 16.0818 27.9577 16.0402L23.7938 11.8762C23.7938 11.8762 23.6897 11.793 23.6272 11.7617C23.5648 11.7305 23.4919 11.7201 23.4294 11.7201H15.1015C14.4113 11.7201 13.7493 11.9943 13.2613 12.4823C12.7732 12.9704 12.499 13.6324 12.499 14.3226V26.8145C12.499 27.5047 12.7732 28.1666 13.2613 28.6547C13.7493 29.1428 14.4113 29.4169 15.1015 29.4169V29.4065ZM27.2291 24.3577L25.3032 26.2836H23.9603V24.9407L26.3026 22.5985L27.6454 23.9413L27.2291 24.3577ZM27.5934 21.2972L28.9363 22.6401L28.3741 23.2022L27.0313 21.8594L27.5934 21.2972ZM23.9499 13.4898L26.3338 15.8736H25.5114C24.6474 15.8736 23.9499 15.1762 23.9499 14.3122V13.4898ZM15.1015 13.7917H19.2655C19.5569 13.7917 19.786 14.0207 19.786 14.3122C19.786 14.6036 19.5569 14.8327 19.2655 14.8327H15.1015C14.81 14.8327 14.581 14.6036 14.581 14.3122C14.581 14.0207 14.81 13.7917 15.1015 13.7917ZM15.1015 15.8736H19.2655C19.5569 15.8736 19.786 16.1027 19.786 16.3941C19.786 16.6856 19.5569 16.9146 19.2655 16.9146H15.1015C14.81 16.9146 14.581 16.6856 14.581 16.3941C14.581 16.1027 14.81 15.8736 15.1015 15.8736ZM15.1015 17.9556H25.5114C25.8029 17.9556 26.0319 18.1846 26.0319 18.4761C26.0319 18.7676 25.8029 18.9966 25.5114 18.9966H15.1015C14.81 18.9966 14.581 18.7676 14.581 18.4761C14.581 18.1846 14.81 17.9556 15.1015 17.9556ZM15.1015 20.0376H25.5114C25.8029 20.0376 26.0319 20.2666 26.0319 20.5581C26.0319 20.8496 25.8029 21.0786 25.5114 21.0786H15.1015C14.81 21.0786 14.581 20.8496 14.581 20.5581C14.581 20.2666 14.81 20.0376 15.1015 20.0376ZM15.1015 22.1196H23.4294C23.7209 22.1196 23.9499 22.3486 23.9499 22.6401C23.9499 22.9316 23.7209 23.1606 23.4294 23.1606H15.1015C14.81 23.1606 14.581 22.9316 14.581 22.6401C14.581 22.3486 14.81 22.1196 15.1015 22.1196ZM15.1015 26.2836C15.2889 26.2836 15.4554 25.9713 15.674 25.5341C15.9551 24.9719 16.3403 24.2016 17.1835 24.2016C18.0267 24.2016 18.4119 24.9719 18.6929 25.5341C18.9115 25.9713 19.0885 26.2836 19.2655 26.2836C19.5569 26.2836 19.6819 26.1691 19.9421 25.9192C20.2232 25.6381 20.6188 25.2426 21.3475 25.2426C21.6389 25.2426 21.8679 25.4716 21.8679 25.7631C21.8679 26.0545 21.6389 26.2836 21.3475 26.2836C21.056 26.2836 20.9311 26.3981 20.6708 26.6479C20.3897 26.929 19.9942 27.3246 19.2655 27.3246C18.4223 27.3246 18.0371 26.5542 17.756 25.9921C17.5374 25.5549 17.3605 25.2426 17.1835 25.2426C17.0065 25.2426 16.8295 25.5549 16.6109 25.9921C16.3299 26.5542 15.9447 27.3246 15.1015 27.3246C14.81 27.3246 14.581 27.0955 14.581 26.8041C14.581 26.5126 14.81 26.2836 15.1015 26.2836Z" fill="#50BD5E"/>
</svg>
