<svg width="41" height="41" viewBox="0 0 41 41" fill="none" xmlns="http://www.w3.org/2000/svg">
<rect opacity="0.2" width="40.6666" height="40.6666" rx="20.3333" fill="#FAB52F"/>
<path d="M26.9367 9.30915C26.8583 9.34134 26.7914 9.39618 26.7444 9.46667C26.6974 9.53715 26.6725 9.62005 26.673 9.70476V10.7512C22.9295 10.9171 19.9518 13.261 19.9518 16.1196C19.9518 16.6982 20.0709 17.2682 20.3091 17.8169C20.3772 17.9743 20.5303 18.0722 20.6962 18.0764H20.7005C20.8664 18.0764 21.0195 17.9743 21.0876 17.8212C21.8788 16.0218 24.0908 14.7839 26.673 14.6605V15.7028C26.673 15.8729 26.7751 16.0303 26.9367 16.0941C27.0941 16.1622 27.277 16.1239 27.3961 16.0048L30.3994 13.0058C30.5653 12.8399 30.5653 12.5676 30.3994 12.4017L27.3961 9.40273C27.3376 9.34316 27.2626 9.30243 27.1807 9.28575C27.0989 9.26908 27.0139 9.27723 26.9367 9.30915ZM16.5232 25.2059V12.2741H15.1279C13.89 12.2741 12.8818 13.278 12.8818 14.5159V26.1758C13.4476 25.5803 14.2431 25.2059 15.1279 25.2059H16.5232ZM15.1279 30.5488H25.8732C26.1072 30.5488 26.2986 30.3574 26.2986 30.1234C26.2986 29.8895 26.1072 29.6981 25.8732 29.6981C25.5414 29.6981 25.2734 29.0727 25.2734 28.3028C25.2734 27.5328 25.5414 26.9075 25.8732 26.9075C26.1072 26.9075 26.2986 26.7203 26.2986 26.4821C26.2986 26.2482 26.1072 26.0567 25.8732 26.0567H15.1279C13.89 26.0567 12.8818 27.0649 12.8818 28.3028C12.8818 29.5407 13.89 30.5488 15.1279 30.5488ZM15.6681 27.8774H23.0486C23.2826 27.8774 23.474 28.0688 23.474 28.3028C23.474 28.5367 23.2826 28.7282 23.0486 28.7282H15.6681C15.4299 28.7282 15.2427 28.5367 15.2427 28.3028C15.2427 28.0688 15.4299 27.8774 15.6681 27.8774Z" fill="#FAB52F"/>
<path d="M17.374 12.2741V25.2059H25.8733C26.0222 25.2059 26.1668 25.2357 26.2987 25.2825V16.6982C26.1491 16.5791 26.0286 16.4276 25.946 16.2552C25.8635 16.0828 25.8212 15.8939 25.8223 15.7027V15.6049C23.9633 15.9112 22.4276 16.8853 21.8661 18.1658C21.766 18.3916 21.6027 18.5836 21.3959 18.7187C21.1891 18.8538 20.9476 18.9262 20.7006 18.9272H20.6963C20.1773 18.9144 19.7264 18.6124 19.5265 18.153C19.2457 17.5021 19.1011 16.8173 19.1011 16.1196C19.1011 14.6733 19.7434 13.3376 20.8154 12.2741H17.374Z" fill="#FAB52F"/>
</svg>
