<svg width="41" height="41" viewBox="0 0 41 41" fill="none" xmlns="http://www.w3.org/2000/svg">
<rect opacity="0.2" width="40.6666" height="40.6666" rx="20.3333" fill="#4173D4"/>
<path d="M21.081 23.1661C21.081 21.6778 21.89 20.375 23.0913 19.6741C19.2443 16.8369 13.6486 19.6659 13.6751 24.4823V25.9204C13.6751 26.1571 13.867 26.349 14.1037 26.349H22.6356C21.69 25.6089 21.081 24.4573 21.081 23.1661Z" fill="#4173D4"/>
<path d="M23.0244 15.1325C23.0244 13.2479 21.4966 11.7201 19.6119 11.7201C15.0854 11.8998 15.0867 18.3659 19.612 18.545C21.4966 18.545 23.0244 17.0172 23.0244 15.1325ZM27.8394 21.5125L25.4237 23.9282C25.2564 24.0955 24.9848 24.0954 24.8176 23.9282L23.8995 23.01C23.7321 22.8427 23.7321 22.5713 23.8995 22.4039C24.0668 22.2366 24.3382 22.2365 24.5056 22.4039L25.1206 23.019L27.2954 20.8443C25.3049 18.9517 21.9291 20.3904 21.9377 23.1661C21.9377 24.9211 23.3655 26.349 25.1206 26.349C27.5782 26.373 29.1347 23.5826 27.8394 21.5125Z" fill="#4173D4"/>
</svg>
